<?xml version="1.0" encoding="utf-8"?>
<!-- Svg Vector Icons : http://www.onlinewebfonts.com/icon -->
<!DOCTYPE svg PUBLIC "-//W3C//DTD SVG 1.1//EN" "http://www.w3.org/Graphics/SVG/1.1/DTD/svg11.dtd">
<svg version="1.1" xmlns="http://www.w3.org/2000/svg" xmlns:xlink="http://www.w3.org/1999/xlink" x="0px" y="0px" viewBox="0 0 1000 1000" enable-background="new 0 0 1000 1000" xml:space="preserve">
<metadata> Svg Vector Icons : http://www.onlinewebfonts.com/icon </metadata>
<g><g transform="translate(0.000000,511.000000) scale(0.100000,-0.100000)"><path d="M2144.8,4574.3c-817.5-117.1-1549.9-687.6-1865-1447.7C-86.4,2238.8,118,1212.6,790.7,537.8c187.4-185.2,485.4-406.6,510.9-376.8c10.6,10.6,68.1,93.7,127.7,185.2c170.3,253.4,417.3,538.6,636.6,726c127.7,112.8,193.7,183.1,187.4,204.4c-6.4,17-44.7,127.7-85.2,244.8c-323.6,924,29.8,1952.2,858,2497.3c163.9,106.5,323.6,183.1,566.3,270.4c34.1,12.8,12.8,29.8-117.1,89.4C3073,4563.6,2579.1,4636,2144.8,4574.3z"/><path d="M4188.5,1263.7c-972.9-144.8-1760.6-670.6-2256.7-1503c-195.9-330-347-783.4-396-1187.9c-12.8-110.7-25.5-204.4-29.8-208.6c-2.1-2.1-66-14.9-140.5-27.7c-538.6-87.3-1002.7-538.6-1117.7-1083.6c-68.1-325.7,4.3-721.7,185.2-1002.7c174.6-268.3,455.6-483.3,753.6-579.1l149-46.8h3374.4c3187,0,3385,2.1,3555.3,38.3c385.3,83,702.6,253.3,979.3,525.8c381.1,372.6,579.1,787.7,642.9,1345.5c68.1,596.1-151.2,1249.7-568.4,1694.6C8814.7-230.8,8059-13.6,7375.6-215.9c-85.2-25.5-155.4-42.6-159.7-38.3C6883.8,286.6,6409,729.4,5896,978.5c-202.2,95.8-487.5,193.7-717.5,244.8C5023.1,1257.4,4337.6,1285,4188.5,1263.7z"/></g></g>
</svg>